<svg width="106" height="90" viewBox="0 0 106 90" fill="none" xmlns="http://www.w3.org/2000/svg">
<path fill-rule="evenodd" clip-rule="evenodd" d="M41.7032 0.135077C25.7311 1.51447 11.5951 11.0632 4.60845 25.1923C1.34805 31.7856 -0.00411117 37.5931 9.38716e-06 44.985C0.00412995 52.4313 1.35382 58.2312 4.60556 64.7776C10.0159 75.6694 19.517 83.8498 31.2194 87.692C41.3828 91.0287 52.6253 90.737 62.3214 86.8849L64.0881 86.1829L66.6396 86.7968C71.309 87.9202 73.2135 88.1228 79.0973 88.1219C84.8461 88.1209 86.7168 87.9265 91.1499 86.8684C95.4246 85.8483 100.073 83.9622 103.23 81.9665C104.804 80.9718 105.366 80.3308 105.366 79.5297C105.366 79.3359 101.996 73.4862 97.8786 66.5305L90.3911 53.8837L90.6474 52.4286C92.4576 42.147 90.3948 31.2767 84.8877 22.0761C78.7536 11.8286 68.4877 4.26839 56.7558 1.35917C52.176 0.223585 46.2552 -0.257934 41.7032 0.135077ZM51.7637 3.89507C68.5214 6.32175 82.3925 18.7525 86.5149 35.0379C87.4941 38.9067 87.9688 43.8538 87.6901 47.286L87.5444 49.0795L85.8764 46.2604C84.2134 43.4503 84.2078 43.4359 84.0634 41.6249C83.4601 34.0588 80.072 26.1661 74.8059 20.0595C67.086 11.1073 54.6634 6.01826 42.8759 6.97927C38.5648 7.33086 35.3948 8.0166 31.7337 9.38991C23.8638 12.3422 17.2093 17.7657 12.6639 24.9325C6.57972 34.5247 5.21231 46.5601 8.98077 57.3496C10.0173 60.3173 12.2515 64.6138 14.0493 67.0973C15.6285 69.2787 18.9974 72.8292 21.0495 74.4748C29.9567 81.6174 42.0073 84.5871 53.0372 82.3579C54.0424 82.1549 54.9399 82.0583 55.0313 82.1432C55.123 82.2282 56.0642 82.7528 57.1229 83.309C58.1815 83.865 58.9696 84.3636 58.8742 84.417C58.1485 84.822 53.9903 85.7874 51.0775 86.2273C48.9379 86.5503 42.2714 86.5477 40.158 86.2229C27.432 84.2667 17.3622 78.059 10.5004 67.9398C6.47238 61.9991 4.15457 55.2461 3.56842 47.7425C2.5698 34.9602 8.32251 21.5367 18.319 13.3231C27.785 5.54506 39.7898 2.16103 51.7637 3.89507ZM47.9615 10.4784C56.8524 11.1099 64.2828 14.4276 70.4441 20.5166C73.2782 23.3174 75.0904 25.8143 76.9321 29.4554C78.1133 31.7911 79.6123 35.6181 79.6123 36.2983C79.6123 36.3867 79.3394 36.4589 79.0058 36.4589C78.6687 36.4589 78.1668 36.6619 77.8768 36.9157C77.5896 37.1668 71.8735 46.6445 65.1747 57.9771C58.4759 69.3096 52.8652 78.6828 52.7065 78.8064C51.6574 79.6245 43.592 79.8076 39.5541 79.1052C26.8889 76.9019 16.3953 68.0191 12.3355 56.065C8.38927 44.4448 10.7623 32.203 18.825 22.5878C21.7706 19.0749 25.9861 15.9075 30.5913 13.7467C34.5828 11.8738 38.566 10.8075 42.7508 10.4916C43.931 10.4025 44.943 10.3174 44.9996 10.3024C45.0563 10.2876 46.3891 10.3667 47.9615 10.4784ZM44.5441 17.6535C43.9771 18.078 43.7635 18.9143 43.7635 20.7093C43.7635 22.8706 44.0292 23.6305 44.9129 23.9942C45.6707 24.306 46.1142 24.2145 46.8024 23.6043C47.2348 23.2206 47.2659 23.0273 47.2659 20.7263C47.2659 18.4103 47.2369 18.2326 46.7892 17.8181C46.2486 17.3179 45.1047 17.2341 44.5441 17.6535ZM32.0349 24.8137C31.3948 25.6154 31.5062 26.32 32.6194 28.5055C33.7346 30.6949 33.9267 30.9172 34.8641 31.1019C35.3971 31.2069 35.612 31.1236 36.1322 30.6113C36.5084 30.2406 36.7585 29.7836 36.7585 29.4669C36.7585 28.8579 35.066 25.4124 34.4345 24.7356C33.8098 24.0663 32.6 24.1057 32.0349 24.8137ZM55.1224 24.6075C54.5733 24.9865 52.6227 28.7861 52.6227 29.4769C52.6227 30.2542 53.49 31.0591 54.328 31.0591C54.7287 31.0591 55.2127 30.9314 55.4032 30.7755C55.9535 30.3254 57.8329 26.4711 57.8154 25.8281C57.7806 24.547 56.2292 23.8438 55.1224 24.6075ZM21.6062 28.2282C21.2508 28.5782 21.1004 28.9505 21.1004 29.4799C21.1004 30.1348 21.2714 30.4022 22.4052 31.5193C23.5214 32.6189 23.8167 32.8049 24.4471 32.8049C25.0227 32.8049 25.3052 32.6632 25.736 32.1589C26.548 31.2081 26.3382 30.5504 24.7283 28.9986C23.2138 27.539 22.4874 27.3598 21.6062 28.2282ZM66.3044 29.0305C65.1655 30.1529 64.9844 30.4326 64.9844 31.0698C64.9844 32.0743 65.7259 32.8049 66.7453 32.8049C67.392 32.8049 67.6759 32.6265 68.815 31.5043C69.9542 30.3817 70.1351 30.1023 70.1351 29.4645C70.1351 28.4944 69.3414 27.7299 68.3346 27.7299C67.7365 27.7299 67.4165 27.9349 66.3044 29.0305ZM88.6586 57.8274L98.1242 73.8164L97.5479 74.11C95.1745 75.3193 90.0322 76.7865 85.9992 77.4053C84.2434 77.6747 82.4296 77.7689 78.9943 77.7689C75.559 77.7689 73.7451 77.6747 71.9893 77.4053C67.9565 76.7865 62.8141 75.3193 60.4408 74.1102L59.8648 73.8166L69.3629 57.7718C74.5869 48.9472 78.936 41.7522 79.0272 41.7828C79.1185 41.8135 83.4527 49.0334 88.6586 57.8274ZM78.2336 55.6356C77.3638 56.0086 77.0669 57.0824 77.181 59.4448C77.2542 60.9628 77.3366 61.2905 77.7542 61.7285C78.1028 62.0941 78.4565 62.2401 78.9943 62.2401C79.532 62.2401 79.8857 62.0941 80.2343 61.7285C80.652 61.2905 80.7344 60.9628 80.8075 59.4448C80.9239 57.0323 80.6287 56.0055 79.7098 55.6271C78.8849 55.2875 79.0485 55.2867 78.2336 55.6356ZM22.652 58.2097C22.0139 58.7842 21.3499 59.5247 21.1764 59.8554C20.5696 61.0117 21.3561 62.2401 22.7031 62.2401C23.3875 62.2401 23.6415 62.0811 24.8046 60.9248C25.9457 59.7903 26.1275 59.5079 26.1275 58.8686C26.1275 58.3114 25.9865 58.0079 25.5596 57.6462C24.6581 56.8821 23.9804 57.0134 22.652 58.2097ZM36.2434 58.9809C35.5837 59.247 35.2024 59.7809 34.1743 61.8773C33.1293 64.0082 33.0902 64.522 33.9155 65.2794C34.4353 65.7567 35.4529 65.818 36.0475 65.4075C36.2735 65.2516 36.9454 64.1302 37.5408 62.9155C38.5367 60.8836 38.6047 60.6538 38.3896 60.0462C38.257 59.6709 37.9032 59.257 37.5705 59.0875C36.9147 58.7531 36.8259 58.746 36.2434 58.9809ZM55.4088 59.1068C54.6356 59.504 54.4839 59.7426 54.48 60.569C54.4761 61.3905 56.3707 65.183 56.9334 65.4798C58.0575 66.0726 59.6276 65.3044 59.6276 64.1615C59.6276 63.8684 59.1138 62.6386 58.4856 61.4285C57.529 59.586 57.2396 59.193 56.7037 59.0089C55.9393 58.7464 56.1396 58.7312 55.4088 59.1068ZM72.6239 61.0505C72.3637 61.2894 71.6867 62.4252 71.1195 63.5748L70.0883 65.6645L70.4721 66.4357C70.7492 66.9919 71.0445 67.2589 71.5319 67.3935C72.6793 67.7108 73.1538 67.28 74.3897 64.7983C74.9959 63.5815 75.4918 62.4098 75.4918 62.1944C75.4918 61.979 75.2209 61.5359 74.8896 61.2094C74.1621 60.4927 73.2976 60.4322 72.6239 61.0505ZM86.6906 64.5482C86.2638 64.91 86.1228 65.2134 86.1228 65.7707C86.1228 66.4099 86.3046 66.6923 87.4457 67.8269C88.5863 68.9609 88.871 69.1421 89.5114 69.1421C90.0205 69.1421 90.3851 68.9986 90.6713 68.6854C91.5791 67.6917 91.4291 66.9197 90.0563 65.5226C88.5546 63.994 87.6526 63.733 86.6906 64.5482ZM44.5441 66.1708C43.9746 66.5973 43.7635 67.4335 43.7635 69.2633C43.7635 71.3555 44.1067 72.3118 44.9345 72.5256C45.7444 72.7348 46.263 72.626 46.8024 72.1336C47.2342 71.7395 47.2659 71.541 47.2659 69.2436C47.2659 66.9276 47.2369 66.75 46.7892 66.3354C46.2486 65.8352 45.1047 65.7514 44.5441 66.1708ZM66.2205 79.7766C70.9975 80.9765 73.0872 81.2114 78.9943 81.2114C83.0584 81.2114 84.7845 81.1279 86.6173 80.8433C90.1641 80.2924 94.2234 79.2077 97.251 78.0019L99.9525 76.926L100.581 77.9542C100.927 78.5198 101.158 79.0646 101.095 79.1649C100.868 79.5261 95.533 81.9129 93.3598 82.6255C88.6269 84.1774 84.7163 84.7637 79.0563 84.7692C73.2578 84.7751 69.5081 84.2203 64.6522 82.6381C62.4896 81.9333 57.1219 79.5287 56.8916 79.1615C56.8298 79.063 57.062 78.5198 57.4077 77.9542L58.0361 76.926L60.7375 78.0019C62.2234 78.5939 64.6908 79.3925 66.2205 79.7766Z" fill="black"/>
</svg>
