<svg width="31" height="90" viewBox="0 0 31 90" fill="none" xmlns="http://www.w3.org/2000/svg">
<path fill-rule="evenodd" clip-rule="evenodd" d="M13.9842 0.22159C13.1482 0.524174 12.1347 1.42401 11.7439 2.21115C11.4733 2.75583 11.3942 3.41023 11.3228 5.69499L11.2349 8.50808L10.7129 8.56751C9.60261 8.69374 8.83956 9.59042 8.59587 11.0552C8.30349 12.8137 7.68267 13.8911 6.75154 14.2559C6.50979 14.3505 5.46683 14.5742 4.43408 14.7526C1.66916 15.2307 1.12535 15.7289 1.12535 17.7846C1.12535 19.131 1.49774 19.6725 2.4236 19.6725C3.16678 19.6725 3.62268 19.1774 3.75173 18.2301L3.85054 17.5038L5.60872 17.2084C6.57572 17.046 7.70113 16.7422 8.10938 16.5335C9.63742 15.7523 10.6466 14.2721 11.0343 12.2442L11.2275 11.2333H15.319H19.4105V11.6408C19.4105 12.359 19.9529 13.9333 20.4942 14.7858C21.4042 16.2193 22.6525 16.8561 25.3883 17.2832L26.7069 17.4889L26.8127 20.6466C26.8709 22.3833 27.0156 24.4228 27.1341 25.1788C27.5621 27.9047 26.7465 30.6121 23.9842 35.6372C23.372 36.7506 23.2785 37.0671 23.2785 38.0227C23.2785 39.9243 23.878 41.4167 26.4346 45.8791C27.1197 47.075 27.7634 48.3622 27.865 48.7392C27.995 49.2216 27.9916 50.2125 27.8536 52.0864C27.746 53.5504 27.6243 54.8473 27.5834 54.9681C27.5417 55.0918 27.2185 55.1882 26.8442 55.1889C25.0732 55.1913 24.2064 55.9667 24.6845 57.1206C24.9686 57.8066 25.9296 58.0827 27.4817 57.9244C28.7798 57.7922 29.5306 57.35 29.8808 56.5119C30.1839 55.7861 30.5267 52.6044 30.5536 50.2649C30.5733 48.5561 30.5336 48.3241 30.0207 47.1445C29.716 46.4437 28.8616 44.8061 28.1221 43.5054C26.3115 40.3208 25.8586 39.1775 25.9535 38.0318C25.9984 37.4917 26.18 36.9207 26.41 36.5979C27.1034 35.624 28.5402 32.5783 29.0676 30.9641C29.8743 28.4958 30.0264 26.9437 29.703 24.4789C29.5541 23.3422 29.4321 21.1195 29.4321 19.5393C29.4321 15.5041 29.2911 15.3003 26.1234 14.7526C25.0906 14.5742 24.0477 14.3505 23.8059 14.2559C22.8795 13.8929 22.2112 12.7613 21.969 11.1448C21.739 9.61187 20.9851 8.69709 19.8445 8.56751L19.3225 8.50808L19.2346 5.69499C19.1349 2.50776 18.9718 1.96764 17.8066 0.9704C16.7157 0.0364539 15.2754 -0.245734 13.9842 0.22159ZM16.1657 3.0498C16.5831 3.46702 16.5974 3.56319 16.5974 5.9508V8.42017H15.2787H13.9601V5.9508C13.9601 3.56319 13.9743 3.46702 14.3917 3.0498C14.9417 2.49967 15.6158 2.49967 16.1657 3.0498ZM1.45079 23.1363C1.01072 23.648 0.962896 23.7886 0.772837 25.1285C0.420848 27.6106 1.17195 30.8558 2.90217 34.3284C3.37706 35.2815 3.93757 36.3028 4.14749 36.5979C4.37746 36.9207 4.55908 37.4917 4.60392 38.0318C4.69886 39.1775 4.24595 40.3208 2.43538 43.5054C1.69588 44.8061 0.841405 46.4437 0.536712 47.1445C0.0238505 48.3241 -0.0158828 48.5561 0.00380888 50.2649C0.0307091 52.6044 0.373554 55.7861 0.676665 56.5119C0.804836 56.8185 1.17581 57.2593 1.50108 57.4912C2.08321 57.9065 2.16356 57.9139 6.70758 57.9721L11.3228 58.0312V62.8626C11.3228 65.6193 11.3954 67.8297 11.492 68.0101C11.585 68.1838 11.8933 68.4222 12.1771 68.5398C12.6017 68.7156 12.7861 68.7054 13.2174 68.4825C13.5058 68.3334 13.7908 68.0834 13.8509 67.9267C13.9109 67.7703 13.9601 65.4728 13.9601 62.8215V58.0009H15.2787H16.5974V67.4072V76.8135H15.2787H13.9601V74.8679C13.9601 72.405 13.7342 71.896 12.6414 71.896C11.5468 71.896 11.3246 72.4017 11.316 74.9118L11.3093 76.9014L10.7593 77.253C9.69368 77.9345 9.48287 78.4192 9.41624 80.3421L9.35593 82.088H7.29446C4.52867 82.088 3.61213 82.3642 2.41902 83.5575C1.74441 84.2319 1.44306 84.7042 1.23225 85.4166C0.872703 86.6308 0.870416 88.1098 1.2268 88.8609C1.78608 90.0394 1.29818 89.9998 15.2787 89.9998C29.2593 89.9998 28.7714 90.0394 29.3306 88.8609C29.687 88.1098 29.6847 86.6308 29.3252 85.4166C29.1144 84.7042 28.813 84.2319 28.1384 83.5575C26.9453 82.3642 26.0288 82.088 23.263 82.088H21.2015L21.1412 80.3421C21.0746 78.4192 20.8638 77.9345 19.7981 77.253L19.2482 76.9014L19.2415 67.4712L19.2346 58.0408L20.0209 57.9229C20.5668 57.8411 20.9163 57.6665 21.1637 57.3518C21.6303 56.7588 21.6136 56.3709 21.096 55.7691L20.6719 55.2757L11.912 55.2254C7.09403 55.1977 3.09926 55.1185 3.03491 55.0496C2.79246 54.7901 2.50324 49.4419 2.6933 48.736C2.7944 48.3608 3.43771 47.075 4.12288 45.8791C6.81624 41.1781 7.37657 39.7169 7.23662 37.7607C7.16207 36.7169 7.03074 36.3587 6.16852 34.8465C3.86038 30.7983 3.01487 27.8449 3.4196 25.2437C3.62004 23.9548 3.61125 23.8328 3.28528 23.3944C2.84538 22.8026 1.85746 22.6637 1.45079 23.1363ZM18.5314 80.7694V82.088H15.2787H12.0261V80.7694V79.4507H15.2787H18.5314V80.7694ZM25.8632 85.0699C26.4973 85.4563 26.9706 86.2449 26.9706 86.9142V87.3626H15.2787H3.58681V86.9142C3.58681 86.2449 4.06011 85.4563 4.69429 85.0699C5.2351 84.7401 5.64863 84.7265 15.2787 84.7265C24.9088 84.7265 25.3223 84.7401 25.8632 85.0699Z" fill="black"/>
</svg>
