<svg width="84" height="90" viewBox="0 0 84 90" fill="none" xmlns="http://www.w3.org/2000/svg">
<path fill-rule="evenodd" clip-rule="evenodd" d="M48.1919 0.126981C46.4921 0.398372 44.5747 0.98495 43.103 1.68374L41.7068 2.34665L40.3106 1.67653C37.9015 0.520436 36.4013 0.221959 32.9807 0.218617C30.6775 0.216331 29.7014 0.289675 28.6176 0.546819C24.6646 1.48482 21.2723 3.37207 18.4891 6.18183C16.2619 8.43035 15.124 10.249 14.1442 13.126L13.7589 14.2569L12.6367 14.6391C6.62419 16.6859 1.81957 22.4964 0.322334 29.5313C-0.104549 31.5371 -0.10804 35.592 0.315528 37.4103C0.683946 38.9922 1.12462 40.2266 1.80718 41.5891L2.31399 42.6012L1.89182 43.4382C0.718327 45.7655 0.080794 48.6291 0.0865533 51.5481C0.0926616 54.7357 0.710124 57.4675 2.08851 60.4045C3.33739 63.0656 4.91561 65.1337 7.42699 67.3994L8.401 68.2782L8.26505 70.6526C8.12543 73.0918 8.31182 78.0104 8.6319 80.3351C9.00625 83.0531 9.93768 87.4111 10.5754 89.4284L10.756 90H19.0324C23.5843 90 27.3087 89.9712 27.3087 89.936C27.3087 89.9006 26.9853 89.0103 26.5898 87.9573C25.9954 86.3736 24.8653 83.1547 24.8653 83.0448C24.8653 83.0284 25.4971 83.2404 26.2694 83.5158C31.3316 85.3211 36.843 85.1026 41.1637 82.9252L42.1915 82.4072L43.3452 82.9305C45.7372 84.0151 47.3786 84.4315 50.0885 84.6409C52.1262 84.7984 55.0255 84.3808 57.4929 83.5744C58.4966 83.2464 59.3356 82.9959 59.3574 83.0177C59.379 83.0397 58.8528 84.5602 58.1881 86.3968C57.5233 88.2334 56.979 89.7954 56.9785 89.8681C56.9779 89.9407 60.6956 90 65.24 90H73.5025L74.0541 87.8454C75.6199 81.7297 75.8959 79.5211 75.9055 73.0271L75.9133 67.7505L76.3496 67.4026C79.8794 64.5879 82.5019 60.3227 83.5976 55.6144C83.9932 53.9147 84.1274 50.3023 83.8628 48.4782C83.6061 46.7092 82.9555 44.5611 82.2475 43.1447L81.729 42.1075L82.3572 40.7579C84.6875 35.7534 84.4702 29.6481 81.7653 24.1309C80.5932 21.7401 79.5534 20.2778 77.773 18.5161L76.5425 17.2985L77.4891 16.2682C78.6676 14.9851 79.1743 14.1174 79.727 12.4346C80.5816 9.83286 80.7577 5.2106 80.1392 1.61761L79.9274 0.386412L79.2293 0.444278C76.8968 0.637576 73.1405 1.74354 70.6075 2.98266C69.1202 3.71012 68.5364 4.12011 67.3788 5.25035C66.6015 6.00911 65.9383 6.62999 65.9051 6.63017C65.8718 6.63017 65.1906 6.01703 64.3915 5.26723C61.9916 3.0159 59.075 1.47585 55.4454 0.543302C53.5321 0.0515261 49.9515 -0.153908 48.1919 0.126981ZM35.8804 5.67071C37.5104 6.02301 39.0588 6.77404 40.5351 7.92838L41.8066 8.92248L42.8799 8.04745C45.0924 6.24322 47.1509 5.44382 49.9967 5.28341C54.4065 5.03506 58.2999 6.55981 61.5194 9.79628C63.8218 12.1108 64.6302 13.6957 65.0973 16.812C65.2332 17.7201 65.3667 18.4854 65.3936 18.5125C65.4205 18.5395 66.11 18.6509 66.9257 18.7597C69.7675 19.1391 71.8344 20.0984 73.8037 21.9519C75.9957 24.015 77.4029 26.4115 78.297 29.6038C78.6036 30.6988 78.6856 31.4527 78.6868 33.189C78.6893 36.4368 78.0806 38.349 76.2835 40.7398C75.7439 41.4574 75.3025 42.0906 75.3025 42.1467C75.3025 42.203 75.7384 42.8328 76.2713 43.5466C78.1544 46.0693 78.7968 48.0137 78.8052 51.2157C78.8195 56.6384 76.0102 61.7132 71.5625 64.2993C70.1897 65.0973 69.1237 65.3977 66.1346 65.829L65.6056 65.9051L65.3967 67.6664C64.8679 72.122 61.982 75.8416 57.3975 77.9763C55.2868 78.959 53.558 79.3299 51.0438 79.3389C47.849 79.3505 45.9275 78.7078 43.4609 76.8026C42.8189 76.3066 42.2009 75.9411 42.0874 75.9904C41.9742 76.0396 41.278 76.5413 40.5405 77.1053C38.3471 78.7826 36.2575 79.45 33.147 79.4673C29.0329 79.4901 24.988 77.7037 22.0527 74.5678C20.1485 72.5334 19.2761 70.6598 18.897 67.7901C18.7827 66.9256 18.6064 66.1966 18.505 66.17C18.4036 66.1434 17.6434 66.0323 16.8156 65.923C14.076 65.5611 12.1622 64.6386 10.0813 62.6769C7.00569 59.7774 5.32696 55.8543 5.32137 51.5532C5.31718 48.3743 6.05524 46.1435 7.90396 43.7485C8.89525 42.4642 8.92545 42.678 7.49366 40.84C5.7877 38.6499 5.01316 35.9205 5.20008 32.7567C5.5294 27.1804 8.6415 22.2676 13.2381 20.0676C14.4604 19.4826 16.5898 18.9624 17.8179 18.9485L18.3623 18.9423L18.5626 17.3683C18.9647 14.2078 19.919 12.1681 21.9857 10.0511C25.7016 6.24463 30.922 4.59887 35.8804 5.67071ZM75.5739 7.69586C75.3222 10.6038 74.2831 12.5821 72.3515 13.8313C71.5351 14.3594 71.4752 14.3712 70.6923 14.1602C69.9179 13.9514 69.868 13.8993 69.6211 13.0435C69.3958 12.2625 69.3944 12.0538 69.6101 11.4376C70.2324 9.65979 71.1541 8.51073 72.7531 7.51944C73.433 7.09802 75.2545 6.29053 75.5432 6.28279C75.6289 6.28033 75.6425 6.90384 75.5739 7.69586ZM39.3879 23.2652C36.9865 23.7953 34.8721 24.9722 32.7292 26.9717L31.4974 28.1212L29.8829 28.0008C26.9772 27.7841 24.0093 28.4545 21.8984 29.8045C20.3635 30.7859 18.0715 33.2476 17.2919 34.7523C15.6914 37.8405 15.7643 40.1785 17.5174 41.9877C18.7256 43.2345 19.9174 43.6266 22.1602 43.5151C23.3016 43.4583 24.2622 43.3 24.9364 43.0576C25.5032 42.8536 25.9744 42.6868 25.9835 42.6868C25.9924 42.6868 26.0046 43.8148 26.0106 45.1932C26.0291 49.489 26.694 52.294 28.6472 56.318C31.5628 62.3243 36.7664 67.026 41.1021 67.572C45.6488 68.1445 51.4871 63.6126 54.8697 56.8854C56.6936 53.2581 57.4875 50.0014 57.6292 45.5661L57.7198 42.7291L58.7013 43.084C59.3359 43.3135 60.2993 43.4678 61.4279 43.5204C63.6407 43.6236 64.8322 43.2321 66.0474 42.0021C67.3415 40.6923 67.7169 39.0485 67.1886 37.0045C66.4549 34.1654 63.9452 31.0881 61.037 29.4613C59.0996 28.3777 57.4842 28.0173 54.5224 28.0082L51.9798 28.0004L50.6525 26.7692C49.9225 26.0921 48.8897 25.2724 48.357 24.9479C45.5322 23.2265 42.3056 22.6211 39.3879 23.2652ZM44.2679 28.7775C48.8853 30.5564 52.44 37.7056 52.44 45.2129C52.44 50.7723 50.1612 56.1568 46.2156 59.921C45.4029 60.6963 44.6644 61.3307 44.5749 61.3307C44.4852 61.3307 44.4119 60.679 44.4119 59.8824V58.434L46.3725 56.4527L48.3329 54.4712H41.7941H35.2552L37.2237 56.4606L39.1921 58.45L39.1404 59.8464L39.089 61.2427L37.5834 59.7883C32.7592 55.1277 30.5274 48.897 31.3304 42.3305C32.0253 36.648 34.6077 31.6599 37.9858 29.4752C39.9131 28.2289 42.188 27.9761 44.2679 28.7775ZM28.3558 33.2963C28.3558 33.716 27.1001 35.6319 26.4231 36.2454C25.3256 37.2398 23.5276 38.1151 22.3253 38.2401L21.3646 38.34L21.5513 37.8451C21.9911 36.6789 23.5637 34.9755 25.0988 34.0023C25.7873 33.5658 28.3558 33.0091 28.3558 33.2963ZM56.5458 33.3806C57.1116 33.4861 57.9444 33.7612 58.3966 33.9923C59.4321 34.521 61.3054 36.4009 61.8164 37.424L62.2051 38.2018L61.6202 38.2551C60.1434 38.3896 57.1959 36.7393 56.2332 35.239C55.7112 34.4257 55.2323 33.4828 55.2323 33.2687C55.2323 33.153 55.4015 33.1674 56.5458 33.3806ZM70.7649 72.8512V75.4015H69.5432C68.8713 75.4015 68.3216 75.3364 68.3216 75.2569C68.3216 75.1773 68.5598 74.669 68.8509 74.1272C69.1422 73.5853 69.5747 72.5666 69.812 71.8631C70.1717 70.7975 70.4499 70.3204 70.7213 70.3035C70.7452 70.3021 70.7649 71.4485 70.7649 72.8512ZM14.3824 71.7415C14.506 72.1584 14.8929 73.093 15.2421 73.8186C15.5915 74.5441 15.9048 75.2007 15.9383 75.2777C15.9716 75.3546 15.4219 75.3941 14.7166 75.3656L13.4341 75.3136L13.3801 73.7306C13.3505 72.86 13.3749 71.8112 13.4344 71.3998C13.5281 70.7537 13.5847 70.6744 13.8505 70.8178C14.0196 70.909 14.259 71.3247 14.3824 71.7415ZM19.3586 81.5135C19.4152 82.0699 19.5387 82.9069 19.633 83.3737C19.9248 84.8202 20.0932 84.7234 17.2853 84.7234C15.0371 84.7234 14.757 84.6904 14.6769 84.4156C14.4744 83.7214 14.0449 81.3656 14.0449 80.9493V80.5022H16.6502H19.2555L19.3586 81.5135ZM70.2429 80.6341C70.2438 80.7067 70.0781 81.6565 69.875 82.7447L69.5054 84.7234H66.9032H64.3009L64.3901 84.3277C64.7445 82.7548 64.8231 82.2537 64.8269 81.5429C64.8292 81.0995 64.8835 80.6839 64.9475 80.6195C65.1088 80.457 70.241 80.4711 70.2429 80.6341Z" fill="black"/>
</svg>
