<svg width="90" height="90" viewBox="0 0 90 90" fill="none" xmlns="http://www.w3.org/2000/svg">
<path fill-rule="evenodd" clip-rule="evenodd" d="M41.8236 0.0303255C32.5815 0.850238 24.3064 4.05281 17.1616 9.57468C12.4443 13.2206 7.49444 19.2507 4.78672 24.6504C1.50544 31.1942 0 37.587 0 44.9766C0 49.0206 0.239045 51.2769 1.05007 54.8858C3.59079 66.1916 10.4498 76.068 20.3324 82.6505C24.1307 85.1805 30.0914 87.7374 34.6892 88.8091C38.9466 89.8015 44.4975 90.2307 48.5176 89.8781C63.0375 88.6048 75.3983 81.0811 83.2223 68.7544C86.5648 63.4888 88.6823 57.6222 89.6776 50.8721C90.1075 47.9562 90.1075 41.997 89.6776 39.0811C88.1415 28.6623 83.7196 19.8923 76.4093 12.7651C72.6515 9.10181 69.202 6.67568 64.636 4.48502C58.4034 1.49469 52.8199 0.154923 46.0514 0.0257499C44.1621 -0.0103269 42.2596 -0.00821511 41.8236 0.0303255ZM50.6315 4.25501C57.4118 5.23894 63.8829 7.85636 69.1757 11.7557C71.0145 13.1102 71.6185 13.6366 73.843 15.8214L75.6513 17.5976L74.2834 18.9879C69.7086 23.6369 63.7166 27.3278 57.6128 29.2564C56.8504 29.4974 56.1626 29.6287 56.0846 29.5482C56.0064 29.4678 55.6923 28.7697 55.3863 27.9969C51.857 19.0808 44.6876 10.843 36.3166 6.0849C35.5669 5.65867 34.9535 5.25813 34.9535 5.19459C34.9535 4.95191 40.1898 4.05105 42.4402 3.90656C44.2837 3.7883 48.7144 3.97678 50.6315 4.25501ZM32.1644 8.3324C33.6499 9.08491 35.4996 10.1236 36.2747 10.6404C43.074 15.1735 48.2287 21.29 51.3446 28.5221C51.8033 29.5868 52.1503 30.5052 52.1158 30.5631C52.0813 30.621 51.1982 30.7794 50.1532 30.9151C47.4323 31.2685 41.552 31.2296 39.1006 30.8419C30.1696 29.4296 22.6276 25.7119 16.4244 19.6642L14.3184 17.611L16.1364 15.8281C19.012 13.008 20.9011 11.5086 23.7198 9.80944C25.1458 8.94976 29.0598 6.96394 29.3279 6.96394C29.4024 6.96394 30.6789 7.57972 32.1644 8.3324ZM16.7039 25.2025C23.4802 30.6654 31.8263 34.0626 40.6643 34.9555C43.3402 35.226 49.2175 35.0777 51.5709 34.6803C52.5234 34.5194 53.3418 34.4269 53.3896 34.4744C53.5411 34.6259 54.3019 38.5984 54.518 40.3678C54.7858 42.5588 54.7858 47.3945 54.518 49.5855C54.3019 51.3548 53.5411 55.3273 53.3896 55.4789C53.3418 55.5264 52.5234 55.4338 51.5709 55.273C49.2175 54.8756 43.3402 54.7272 40.6643 54.9977C30.3163 56.0432 21.221 60.2551 13.5257 67.5646L11.774 69.2287L10.614 67.4418C7.04365 61.9415 4.93276 56.1909 4.11204 49.7282C3.83882 47.5777 3.83882 42.3756 4.11204 40.225C4.93276 33.7624 7.04365 28.0117 10.614 22.5115L11.774 20.7245L13.5257 22.3886C14.4893 23.3038 15.9195 24.5702 16.7039 25.2025ZM81.2406 25.6049C83.5609 29.8576 85.2277 35.1137 85.8769 40.225C86.1501 42.3756 86.1501 47.5777 85.8769 49.7282C85.0561 56.1909 82.9453 61.9415 79.3749 67.4418L78.2149 69.2287L76.4632 67.5646C73.082 64.3531 69.7113 61.9257 65.781 59.8728C63.5375 58.701 60.408 57.4041 58.4266 56.8251C57.8213 56.6483 57.3258 56.4227 57.3256 56.3238C57.3256 56.2247 57.5224 55.1952 57.763 54.036C58.4115 50.9131 58.6327 48.6074 58.6327 44.9766C58.6327 41.3459 58.4115 39.0401 57.763 35.9173C57.5224 34.7581 57.3256 33.7286 57.3256 33.6295C57.3258 33.5306 57.8213 33.305 58.4266 33.1281C61.7326 32.1621 66.433 29.9474 69.6371 27.8456C71.8565 26.3898 74.4948 24.2757 76.5465 22.3093L78.2001 20.7242L79.3136 22.4189C79.9259 23.3511 80.7931 24.7849 81.2406 25.6049ZM50.7196 59.1173C51.7834 59.2842 52.1151 59.4007 52.0728 59.5929C51.9287 60.2468 50.4985 63.3677 49.6173 64.9509C46.8659 69.8941 43.1517 74.1857 38.6968 77.5683C36.2782 79.405 34.7116 80.3693 31.8249 81.7982L29.3131 83.0416L27.2448 82.0328C22.5712 79.753 18.5628 76.8184 15.1791 73.1998L14.3417 72.3042L16.4464 70.2623C22.7955 64.103 31.0416 60.1208 39.6217 59.0705C40.4936 58.9639 41.4449 58.8435 41.7355 58.803C42.7262 58.6654 49.3059 58.8956 50.7196 59.1173ZM57.6778 60.7137C61.0195 61.7805 64.4928 63.4489 67.5142 65.4384C70.0597 67.1143 71.5327 68.3027 73.7483 70.4675L75.6379 72.3143L74.8052 73.2047C68.45 80.0013 60.25 84.2339 50.5434 85.7282C47.8524 86.1424 42.2399 86.1496 39.6217 85.7421C36.993 85.3327 34.9535 84.9002 34.9535 84.7516C34.9535 84.6842 35.3697 84.4069 35.8783 84.1351C40.0245 81.9202 45.4151 77.3967 48.5835 73.4735C51.2213 70.2074 53.939 65.6024 55.405 61.9159C56.0117 60.3902 56.0645 60.2864 56.2349 60.2896C56.3018 60.2908 56.9511 60.4816 57.6778 60.7137Z" fill="black"/>
</svg>
