<svg width="128" height="90" viewBox="0 0 128 90" fill="none" xmlns="http://www.w3.org/2000/svg">
<path fill-rule="evenodd" clip-rule="evenodd" d="M38.321 0.387314C37.033 1.28774 37.0243 1.37409 37.0243 13.2744C37.0243 25.4146 37.0233 25.4062 38.5074 26.1724C39.589 26.7309 61.0437 26.7359 62.1243 26.1781C63.5328 25.4509 63.6183 25.1137 63.6183 20.2905V15.8797L66.0416 15.8834C70.5332 15.8901 73.8274 17.1706 76.499 19.9478C77.8635 21.3663 78.4202 22.36 83.23 31.9613L88.4738 42.4285H48.7704H9.0673L14.8176 36.6597C17.9803 33.487 20.6916 30.647 20.8427 30.349C20.9938 30.0508 21.1176 29.4002 21.1176 28.9032C21.1176 27.0359 18.9906 25.9526 17.1907 26.9034C16.8216 27.0984 12.8009 30.9822 8.25557 35.534C0.158066 43.6435 -0.00820888 43.8301 0.000241553 44.7943C0.00521239 45.3354 0.147627 46.0014 0.316884 46.2743C0.48639 46.5472 4.37458 50.4864 8.95745 55.028C16.1341 62.1401 17.4143 63.3057 18.1851 63.4305C19.8627 63.7025 21.1176 62.4924 21.1176 60.6032C21.1176 59.7499 20.7597 59.3378 15.0972 53.6675L9.07675 47.639H51.3843C74.6536 47.639 93.6919 47.6978 93.6919 47.7697C93.6919 47.8417 91.3951 52.4773 88.5881 58.0712C83.8377 67.5379 83.3737 68.3592 81.8827 69.937C79.1204 72.8601 76.2522 74.0061 71.6089 74.0419L68.7882 74.0637L68.2352 72.5472C66.2228 67.027 61.3379 63.5186 55.665 63.5186C49.7912 63.5186 44.5693 67.4667 42.8887 73.1784C42.3193 75.1138 42.3652 78.6879 42.9856 80.6927C44.8586 86.7461 51.3515 90.8212 57.5912 89.8595C62.4124 89.1161 66.9831 85.269 68.2854 80.8577L68.697 79.463L72.1848 79.3229C74.2005 79.2417 76.3019 79.0107 77.1639 78.7755C80.6064 77.8359 84.1996 75.5586 86.4337 72.9003C87.9881 71.0505 88.8528 69.4713 94.5944 57.998C99.1576 48.8796 99.8465 47.639 100.347 47.639C100.671 47.639 100.973 47.8256 101.051 48.0732C102.456 52.5788 105.115 55.6411 109.048 57.2844C113.824 59.2797 119.477 58.1188 123.25 54.3675C125.896 51.7372 127.233 48.5645 127.241 44.8997C127.258 37.841 121.153 31.7469 114.082 31.763C108.376 31.7759 103.261 35.3799 101.49 40.635L100.927 42.3044L97.6803 42.361L94.4331 42.4175L88.6226 30.8234C85.0317 23.6577 82.3745 18.6606 81.6662 17.7406C80.0124 15.5928 77.7375 13.7677 75.1755 12.5333C72.2817 11.1388 70.0931 10.6691 66.4897 10.6691H63.6183V6.17818V1.68721L62.7733 0.843607L61.9282 0H50.4016C40.3585 0 38.8034 0.0498713 38.321 0.387314Z" fill="black"/>
</svg>
