<svg width="90" height="90" viewBox="0 0 90 90" fill="none" xmlns="http://www.w3.org/2000/svg">
<path fill-rule="evenodd" clip-rule="evenodd" d="M3.25726 0.108522C2.04464 0.479307 0.961468 1.39535 0.327945 2.5857C0.0107436 3.18167 0 4.57325 0 45.0164V86.8309L0.380783 87.5351C0.829726 88.3653 1.69327 89.2146 2.55382 89.6722C3.15 89.9893 4.54209 90 45 90H86.8297L87.5342 89.6194C88.3647 89.1706 89.2143 88.3074 89.6721 87.4471C89.9893 86.8512 90 85.4596 90 45.0164C90 4.57325 89.9893 3.18167 89.6721 2.5857C89.2143 1.72547 88.3647 0.862239 87.5342 0.41346L86.8297 0.0328158L45.2642 0.00323755C22.4031 -0.0131361 3.49996 0.0342243 3.25726 0.108522ZM86.5791 3.45245L87.0939 3.96708V7.94201V11.9169H45H2.90607V7.94201V3.96708L3.42088 3.45245L3.93569 2.93782H45H86.0643L86.5791 3.45245ZM6.78434 6.1527C5.86479 6.62683 5.7209 7.72299 6.47225 8.52776C7.30656 9.42127 8.89433 8.7253 8.89433 7.46611C8.89433 6.43263 7.69245 5.68455 6.78434 6.1527ZM12.7691 6.15868C12.5269 6.28105 12.2271 6.59303 12.1032 6.85184C11.4238 8.26789 13.3369 9.60472 14.4502 8.49167C15.1771 7.76524 14.9879 6.63105 14.0576 6.13562C13.5705 5.87646 13.3186 5.88086 12.7691 6.15868ZM18.7156 6.2064C17.8781 6.66063 17.773 7.8626 18.5127 8.52776C19.6963 9.59223 21.352 8.2693 20.7615 6.73106C20.6442 6.42559 19.8039 5.92628 19.4266 5.9379C19.3007 5.94178 18.9807 6.06255 18.7156 6.2064ZM67.544 45.0164V75.1228H35.225H2.90607V45.0164V14.91H35.225H67.544V45.0164ZM87.0939 23.9771V33.0443H78.816H70.5382V23.9771V14.91H78.816H87.0939V23.9771ZM8.21149 18.0771C7.35076 18.2837 6.74789 18.7842 6.29648 19.6671C5.95303 20.3392 5.9002 20.714 5.9002 22.4806C5.9002 24.2446 5.95356 24.6241 6.29648 25.3029C6.79456 26.2886 7.59628 26.8281 8.77104 26.9682C9.27476 27.0283 16.7803 27.0533 25.4501 27.0238L41.2133 26.9702L41.9411 26.5532C43.1805 25.8432 43.4149 25.1956 43.4149 22.4806C43.4149 19.7656 43.1805 19.118 41.9411 18.408L41.2133 17.991L25.0098 17.9629C16.0978 17.9472 8.53855 17.9988 8.21149 18.0771ZM50.165 18.08C49.1613 18.2879 48.5516 18.6331 47.7826 19.4291C46.5427 20.7124 46.5851 20.2849 46.5851 31.5076V41.6021L47.0413 42.5172C47.2923 43.0206 47.7851 43.6694 48.1366 43.959C49.3711 44.9763 49.86 45.0411 55.8616 44.9819C60.7567 44.9337 61.3523 44.8962 61.908 44.6006C62.7686 44.143 63.6321 43.2936 64.0811 42.4635C64.4566 41.769 64.4625 41.6239 64.5115 31.9205C64.567 20.9638 64.5599 20.8839 63.4192 19.5518C63.0696 19.1434 62.4015 18.6523 61.8717 18.4141C60.9668 18.0074 60.7914 17.994 55.9198 17.9615C53.159 17.9428 50.5694 17.9961 50.165 18.08ZM81.7031 19.7995C81.499 19.967 80.5946 21.0941 79.6935 22.3045C78.7924 23.515 78.0289 24.5377 77.9967 24.5773C77.9645 24.6169 77.472 24.2051 76.9025 23.662C76.333 23.119 75.6645 22.6239 75.4172 22.5618C74.4545 22.3204 73.3912 23.3542 73.629 24.3007C73.6882 24.5365 74.5903 25.5703 75.6335 26.598C77.6031 28.538 77.9233 28.7056 78.7671 28.2367C79.4034 27.8834 84.0998 21.4763 84.0998 20.9615C84.0998 20.346 83.2067 19.4865 82.5723 19.4914C82.2984 19.4935 81.9072 19.6323 81.7031 19.7995ZM40.4207 22.4815V24.0671L24.7016 24.022L8.98239 23.9771L8.93008 22.6732C8.90137 21.9559 8.91863 21.2628 8.96865 21.1327C9.04368 20.9371 11.7756 20.896 24.7401 20.896H40.4207V22.4815ZM60.3666 21.0813C61.6003 21.4239 61.5707 21.1485 61.5161 31.7189L61.4677 41.1336L61.0668 41.5344C60.6722 41.9292 60.592 41.9362 55.8722 41.9876C53.2356 42.0165 50.8977 41.9947 50.6767 41.9392C50.4557 41.8838 50.1184 41.682 49.9271 41.4908C49.5891 41.1529 49.5793 40.8668 49.5793 31.4903V21.8378L49.9755 21.4725C50.1936 21.2716 50.5303 21.0689 50.7241 21.0221C51.4361 20.8499 59.7163 20.9008 60.3666 21.0813ZM7.91771 30.4834C7.32434 31.0764 7.33386 31.9604 7.93973 32.5295L8.39431 32.9562L24.5395 32.9992C37.3315 33.0332 40.7763 32.9955 41.1252 32.8178C42.0568 32.3437 42.2165 31.1294 41.4421 30.4083C41.0627 30.0549 40.8898 30.0512 24.7044 30.0512H8.34992L7.91771 30.4834ZM7.91771 36.4695C7.19084 37.196 7.38 38.3301 8.31029 38.8256C8.8908 39.1346 40.5123 39.1124 41.1252 38.8025C42.0566 38.3315 42.2165 37.1155 41.4421 36.3943C41.0627 36.041 40.8898 36.0373 24.7044 36.0373H8.34992L7.91771 36.4695ZM87.0939 45.0164V53.9955H78.816H70.5382V45.0164V36.0373H78.816H87.0939V45.0164ZM81.4268 41.099C81.1795 41.3653 80.2818 42.516 79.4316 43.6562L77.8861 45.7291L76.7811 44.6685C75.8742 43.7979 75.5711 43.609 75.0887 43.6136C74.3865 43.6202 73.962 43.9097 73.7197 44.5465C73.4398 45.2824 73.7565 45.8358 75.4348 47.5439C77.1906 49.331 77.8736 49.7264 78.604 49.3789C79.0639 49.16 82.7621 44.4778 83.681 42.951C84.4396 41.6906 83.8996 40.6149 82.5085 40.6149C82.045 40.6149 81.7561 40.7441 81.4268 41.099ZM7.95135 42.4551C7.49043 42.8822 7.34953 43.5776 7.5947 44.2162C7.90556 45.0257 7.70319 45.0164 24.8384 45.0164H40.9762L41.4911 44.5018C42.1591 43.834 42.1591 43.2058 41.4911 42.538L40.9762 42.0234H24.6968H8.41738L7.95135 42.4551ZM8.27789 48.2221C7.37472 48.7397 7.20352 49.8565 7.91771 50.5703L8.34992 51.0025H35.935H63.5203L64.0351 50.4879C64.7031 49.8201 64.7031 49.1919 64.0351 48.5241L63.5203 48.0094L36.0752 48.0147C15.7644 48.0188 8.53855 48.0727 8.27789 48.2221ZM8.38198 54.1874C7.40906 54.5763 7.16795 55.8068 7.91771 56.5563L8.34992 56.9886H35.9764C63.4851 56.9886 63.6045 56.987 63.9861 56.6315C64.7606 55.9104 64.6006 54.6943 63.6693 54.2233C63.3198 54.0466 57.6174 54.0026 36.0176 54.0093C18.9999 54.0147 8.64722 54.0814 8.38198 54.1874ZM87.0939 66.0557V75.1228H78.816H70.5382V66.0557V56.9886H78.816H87.0939V66.0557ZM11.0652 60.1636C9.99881 60.377 9.37673 60.748 8.59333 61.6378C7.65581 62.7024 7.48497 63.4011 7.48708 66.1642C7.48849 68.2617 7.53393 68.6172 7.89975 69.4009C8.38462 70.4396 9.45599 71.4627 10.4123 71.8004C10.9789 72.0004 15.3597 72.0418 36.0176 72.0418H60.9393L61.8717 71.6206C63.0187 71.1027 63.943 70.0597 64.2898 68.8924C64.6366 67.7249 64.6366 64.3865 64.2898 63.219C63.959 62.1061 63.0736 61.0693 61.9748 60.5084L61.1155 60.0696L36.4579 60.043C22.8963 60.0286 11.4696 60.0828 11.0652 60.1636ZM81.8664 61.7924C81.6552 61.91 80.7119 63.0363 79.7701 64.2951C78.8284 65.5539 78.0309 66.6163 77.9979 66.6559C77.965 66.6955 77.472 66.2837 76.9025 65.7405C76.333 65.1976 75.6444 64.6974 75.3723 64.6291C74.42 64.3902 73.3893 65.4249 73.629 66.3793C73.6882 66.6151 74.5903 67.6489 75.6335 68.6765C77.6031 70.6166 77.9233 70.7842 78.7671 70.3153C79.4034 69.962 84.0998 63.5549 84.0998 63.0401C84.0998 62.4755 83.206 61.564 82.6603 61.5723C82.4349 61.5758 82.0777 61.6748 81.8664 61.7924ZM60.4781 63.1697C61.3201 63.4632 61.5558 64.0942 61.5558 66.0557C61.5558 68.1392 61.324 68.6912 60.3379 68.9567C59.8692 69.0829 51.9633 69.1269 35.4901 69.0952L11.3296 69.0487L10.9044 68.5547C10.5094 68.0955 10.4795 67.9205 10.4795 66.0696C10.4795 64.3386 10.5259 64.0194 10.8352 63.6264C11.0309 63.3776 11.3677 63.1401 11.5838 63.0984C11.7997 63.0567 22.7633 63.0118 35.9473 62.9986C53.0937 62.9815 60.0776 63.0303 60.4781 63.1697ZM87.0939 82.0908V86.0657L86.5791 86.5804L86.0643 87.095H45H3.93569L3.42088 86.5804L2.90607 86.0657V82.0908V78.1159H45H87.0939V82.0908Z" fill="black"/>
</svg>
